<svg enable-background="new 0 0 600 650" height="329.14" viewBox="0 0 600 650" width="303.822" xmlns="http://www.w3.org/2000/svg"><path d="m297.029 6.568v215.944h257.077l-.343-147.132s-1.942-43.675 35.763-69.574 0 0 0 0z" fill="#fff"/><path d="m300.528 138.832 129.83-25.257 122.784 25.221v20.102l-122.886-25.606-129.764 25.57z" fill="#069" stroke="#000"/><path d="m300.528 168.539 129.83-25.257 122.784 25.221v20.102l-122.886-25.606-129.764 25.57z" fill="#069" stroke="#000"/><path d="m300.528 198.245 129.83-25.257 122.784 25.221v20.103l-122.886-25.607-129.764 25.571z" fill="#069" stroke="#000"/><path d="m430.323 85.354 3.85 6.715 7.759-.038-3.869 6.753 3.869 6.677h-7.759l-3.85 6.716-3.889-6.716h-7.757l3.907-6.677-3.907-6.753 7.757.038z" fill="#d4af37" stroke="#000"/><path d="m359.292 7.896 3.85 6.714 7.758-.038-3.869 6.753 3.869 6.677h-7.758l-3.85 6.716-3.89-6.716h-7.756l3.907-6.677-3.907-6.753 7.756.038z" fill="#d4af37" stroke="#000"/><path d="m504.663 8.182 3.85 6.715 7.758-.038-3.869 6.753 3.869 6.677h-7.758l-3.85 6.716-3.89-6.716h-7.756l3.907-6.677-3.907-6.753 7.756.038z" fill="#d4af37" stroke="#000"/><path d="m554.105 71.742h-31.563v13.996h-36.705v-14.139h-35.563v14.282h-38.562v-14.568h-34.42v14.282h-36.419v-13.71h-39.99l-3.188.143v-38.848h3.188 40.99v13.711h33.991v-13.711h36.704v13.14h35.42v-13.14h39.133v13.997h33.991v-14.425h42.847c.002 0-10.567 19.709-9.854 38.99z" fill="#ed1c2e" stroke="#000"/><path d="m383.109 602.331v-383.285h170.653v150.042s.297 124.356-170.563 233.243c-.022.022-.045.022-.068.046z" fill="#ed1c2e"/><path d="m301.027 219.046h2.56 79.522v383.285l.022.046c-23.971 15.265-51.118 30.232-82.287 44.491-31.169-14.259-58.339-29.227-82.288-44.491l.023-.046v-383.285z" fill="#fff"/><path d="m301.027 113.405v105.641h-82.447-170.676v-105.641h249.49z" fill="#fff"/><path d="m301.027 5.913v107.493h-3.633-249.49v-38.026c-.046-52.694-38.985-70.176-38.985-70.176h288.337 3.771z" fill="#ed1c2e"/><path d="m218.488 602.331c-170.882-108.887-170.539-233.197-170.539-233.197l-.045-150.087h170.676v383.285l-.023.046c-.023-.024-.046-.024-.069-.047z" fill="#ed1c2e"/><path d="m218.58 219.046v383.285" fill="none" stroke="#000"/><path d="m47.904 113.405v-38.025c-.046-52.694-38.985-70.176-38.985-70.176h288.337 3.771 291.72s-38.938 17.481-38.984 70.176v38.025 105.641 150.042s.297 124.356-170.563 233.243c-.022.022-.045.022-.068.046-23.971 15.265-51.118 30.232-82.287 44.491-31.169-14.259-58.339-29.227-82.288-44.491-.023-.023-.046-.023-.069-.046-170.882-108.887-170.539-233.197-170.539-233.197l-.045-150.087z" fill="none" stroke="#000" stroke-width="2"/><path d="m553.763 219.046h-170.654-79.522-2.56-82.447-170.676" fill="none" stroke="#000"/><path d="m553.763 113.405h-252.736-3.633-249.49" fill="none" stroke="#000"/><path d="m383.109 219.046v383.285" fill="none" stroke="#000"/><path d="m301.027 5.913v107.492 105.641.8" fill="none" stroke="#000"/><path d="m217.78 63.818c.16 5.758-5.142 4.958-5.142 4.958-2.103 0-3.885-2.331-3.771-3.862l-26.439-.091v26.599c1.531-.114 3.359 1.645 3.359 3.702 0 0 .869 5.256-4.958 5.142-3.908-.137-5.324-4.136-5.324-4.136s-1.326 3.999-5.233 4.136c-5.85.114-5.096-5.142-5.096-5.142 0-2.057 2.377-3.816 3.885-3.702l-.045-26.599h-26.69c.114 1.531-1.691 3.702-3.748 3.702 0 0-5.324.822-5.165-4.936.091-3.885 4.136-5.256 4.136-5.256s-4.045-1.371-4.136-5.233c-.16-5.758 5.165-4.958 5.165-4.958 2.057 0 3.862 2.308 3.748 3.793h26.827v-26.439c-1.508.16-3.725-1.645-3.725-3.702 0 0-.777-5.233 5.096-5.05 3.885.068 5.188 4.067 5.188 4.067s1.302-3.976 5.21-4.067c5.85-.16 5.073 5.05 5.073 5.05 0 2.057-2.217 3.862-3.725 3.702l-.068 26.599h26.667c-.114-1.531 1.668-3.748 3.771-3.748 0 0 5.301-.777 5.142 5.004-.092 3.862-4.159 5.233-4.159 5.233s4.065 1.326 4.157 5.234z" fill="#d4af37"/><path d="m180.83 100.266c5.827.114 4.958-5.142 4.958-5.142 0-2.057-1.828-3.816-3.359-3.702v-26.599l26.439.091c-.114 1.531 1.668 3.862 3.771 3.862 0 0 5.301.8 5.142-4.958-.092-3.908-4.159-5.233-4.159-5.233s4.067-1.371 4.159-5.233c.16-5.781-5.142-5.004-5.142-5.004-2.103 0-3.885 2.216-3.771 3.748h-26.667l.068-26.599c1.508.16 3.725-1.645 3.725-3.702 0 0 .777-5.21-5.073-5.05-3.908.091-5.21 4.067-5.21 4.067s-1.303-3.999-5.188-4.067c-5.873-.183-5.096 5.05-5.096 5.05 0 2.057 2.217 3.862 3.725 3.702v26.439h-26.827c.114-1.485-1.691-3.793-3.748-3.793 0 0-5.324-.8-5.165 4.958.091 3.862 4.136 5.233 4.136 5.233s-4.045 1.371-4.136 5.256c-.16 5.758 5.165 4.936 5.165 4.936 2.057 0 3.862-2.171 3.748-3.702h26.69l.045 26.599c-1.508-.114-3.885 1.645-3.885 3.702 0 0-.754 5.256 5.096 5.142 3.907-.137 5.233-4.136 5.233-4.136s1.418 3.997 5.326 4.135z" fill="none" stroke="#000"/><path d="m169.376 26.424c2.681.442 3.243-3.022.948-3.91" fill="#d4af37" stroke="#000"/><path d="m143.415 52.094c.473 2.619-3.013 3.183-3.92.927" fill="#d4af37" stroke="#000"/><path d="m143.415 64.628c.473-2.661-3.013-3.225-3.92-.929" fill="#d4af37" stroke="#000"/><path d="m169.157 90.498c2.659-.443 3.224 3.023.944 3.91" fill="#d4af37" stroke="#000"/><path d="m181.809 90.498c-2.659-.443-3.224 3.023-.925 3.91" fill="#d4af37" stroke="#000"/><path d="m207.894 64.829c-.476-2.62 3.033-3.185 3.916-.927" fill="#d4af37" stroke="#000"/><path d="m207.894 52.295c-.476 2.661 3.033 3.185 3.916.967" fill="#d4af37" stroke="#000"/><path d="m182.042 26.424c-2.663.442-3.236-3.022-.938-3.91" fill="#d4af37" stroke="#000"/><path d="m285.74 141.101c-.663.251-1.554.617-2.422 2.102-.845 1.462-.937.982-.754.48.366-1.257.891-2.582 2.765-3.131.914-.274 1.119.321.411.549z"/><path d="m279.479 148.436c1.508-3.679.389-4.524-.16-5.69-.32-.663.16-2.057 1.463-.457 1.302 1.531.822 4.593-.366 6.65-.686 1.165-1.189.617-.937-.503z"/><path d="m276.759 154.354c0-.434.343-.754.777-.754.389 0 .754.32.754.754 0 .412-.365.8-.754.8-.434 0-.777-.388-.777-.8z"/><path d="m272.166 154.035c-.388 0-.686-.343-.686-.708 0-.411.297-.708.686-.708s.686.297.686.708c0 .365-.297.708-.686.708z"/><path d="m274.383 161.507c-2.514.549-5.553 1.028-8.821 1.394l-.045-.434v-7.061l.045-.434c7.609.959 13.711 2.445 14.213 4.25-.686.594-1.965 1.188-3.702 1.76-.525.183-1.074.343-1.646.503-.021-.001-.044.022-.044.022z" fill="#d4af37"/><path d="m266.956 151.932c.343 0 .64.274.64.594 0 .389-.297.663-.64.663s-.64-.274-.64-.663c0-.319.297-.594.64-.594z"/><path d="m261.609 152.435c-.297 0-.571-.274-.571-.548 0-.32.274-.617.571-.617.32 0 .571.297.571.617 0 .274-.251.548-.571.548z"/><path d="m257.61 151.361c0 .297-.251.571-.548.571s-.526-.274-.526-.571c0-.32.229-.502.526-.502.296-.001.548.182.548.502z"/><path d="m254.182 146.06c.069.503-.594.594-.754.137-1.166-5.827 2.148-8.432 4.57-8.432.8 0 .868 1.051.343 1.12-4.09 1.759-4.182 6.695-4.159 7.175z"/><path d="m253.839 148.253c.343 0 .617.274.617.594 0 .365-.274.663-.617.663-.366 0-.64-.297-.64-.663.001-.32.275-.594.64-.594z"/><path d="m247.144 153.829c5.781 0 12.545.411 18.418 1.143l-.045.434v7.061l.045.434c-3.405.412-7.061.708-10.626.891-2.559.137-5.05.206-7.381.206-1.028 0-2.102-.023-3.199-.046l.023-.846v-8.523l-.023-.731c.96-.023 1.874-.023 2.788-.023z" fill="#d4af37"/><path d="m248.675 134.817c-.183 1.645-.686 9.94-.982 13.048-.046.434-.389.389-.434.046-.389-3.062-.823-11.608-.982-13.094-.23-2.103 2.626-2.148 2.398 0z"/><path d="m241.614 148.848c0 .365-.297.663-.64.663-.366 0-.64-.297-.64-.663 0-.32.274-.594.64-.594.343-.001.64.273.64.594z"/><path d="m237.752 151.932c-.297 0-.571-.274-.571-.571 0-.32.274-.502.571-.502s.526.183.526.502c0 .297-.229.571-.526.571z"/><path d="m236.815 137.765c2.422 0 5.735 2.605 4.57 8.432-.137.457-.822.366-.777-.137.046-.48-.045-5.416-4.159-7.175-.479-.069-.433-1.12.366-1.12z"/><path d="m232.656 151.887c0-.32.251-.617.548-.617.32 0 .571.297.571.617 0 .274-.251.548-.571.548-.296 0-.548-.274-.548-.548z"/><path d="m227.88 153.189c-.366 0-.663-.274-.663-.663 0-.32.297-.594.663-.594.343 0 .64.274.64.594 0 .389-.297.663-.64.663z"/><path d="m223.333 153.326c0 .366-.32.708-.686.708-.389 0-.731-.343-.731-.708 0-.411.343-.708.731-.708.366 0 .686.297.686.708z"/><path d="m223.059 161.964c-2.011-.525-3.771-1.074-5.119-1.668-1.28-.525-2.216-1.097-2.719-1.668 2.582-2.674 17.161-4.525 29.135-4.776l.023.731v8.523l-.023.846c-7.083-.16-15.196-.891-21.251-1.988-.023 0-.046 0-.046 0z" fill="#d4af37"/><path d="m217.277 153.601c.434 0 .754.32.754.754 0 .412-.32.8-.754.8-.411 0-.754-.388-.754-.8 0-.435.343-.754.754-.754z"/><path d="m214.055 142.289c1.303-1.6 1.737-.206 1.44.457-.571 1.166-1.691 2.011-.114 5.69.206 1.12-.297 1.668-.983.503-1.188-2.057-1.691-5.119-.343-6.65z"/><path d="m212.707 185.341c-.845 1.508-.891 1.028-.777.526.411-1.303.937-2.56 2.765-3.131.914-.274 1.143.274.457.525-.708.229-1.599.594-2.445 2.08z"/><path d="m212.273 143.683c.137.502.068.982-.777-.48-.846-1.485-1.737-1.851-2.422-2.102-.686-.229-.48-.823.457-.549 1.805.549 2.331 1.874 2.742 3.131z"/><path d="m208.845 190.62c1.554-3.679.434-4.57-.137-5.736-.297-.594.16-2.011 1.462-.411 1.303 1.485.823 4.616-.343 6.649-.707 1.12-1.233.571-.982-.502z"/><path d="m237.181 151.361c0 .297.274.571.571.571s.526-.274.526-.571c0-.32-.229-.502-.526-.502-.297-.001-.571.182-.571.502zm42.298-2.925c-.251 1.12.251 1.668.937.503 1.188-2.057 1.668-5.119.366-6.65-1.303-1.6-1.783-.206-1.463.457.548 1.166 1.668 2.011.16 5.69zm3.838-5.233c.869-1.485 1.76-1.851 2.422-2.102.708-.229.503-.823-.411-.549-1.874.549-2.399 1.874-2.765 3.131-.182.503-.091.983.754-.48zm-30.117 5.645c0 .365.274.663.64.663.343 0 .617-.297.617-.663 0-.32-.274-.594-.617-.594-.366-.001-.64.273-.64.594zm25.09 5.506c0-.434-.365-.754-.754-.754-.434 0-.777.32-.777.754 0 .412.343.8.777.8.389 0 .754-.388.754-.8zm-30.598-6.489c.297-3.108.8-11.403.982-13.048.229-2.148-2.627-2.103-2.399 0 .16 1.485.594 10.032.982 13.094.047.342.389.388.435-.046zm-13.916 4.022c0-.32-.251-.617-.571-.617-.297 0-.548.297-.548.617 0 .274.251.548.548.548.319 0 .571-.274.571-.548zm38.39.731c-.388 0-.686.297-.686.708 0 .366.297.708.686.708s.686-.343.686-.708c0-.411-.297-.708-.686-.708zm-10.557-.183c.32 0 .571-.274.571-.548 0-.32-.251-.617-.571-.617-.297 0-.571.297-.571.617 0 .274.274.548.571.548zm5.347-.503c-.343 0-.64.274-.64.594 0 .389.297.663.64.663s.64-.274.64-.663c0-.319-.297-.594-.64-.594zm-8.957-14.167c-2.422 0-5.736 2.605-4.57 8.432.16.457.823.366.754-.137-.023-.48.069-5.416 4.159-7.175.525-.069.456-1.12-.343-1.12zm-46.503 5.438c.845 1.462.914.982.777.48-.411-1.257-.937-2.582-2.742-3.131-.937-.274-1.143.32-.457.549.685.251 1.576.617 2.422 2.102zm45.566 8.729c.297 0 .548-.274.548-.571 0-.32-.251-.502-.548-.502s-.526.183-.526.502c0 .297.228.571.526.571zm-29.844.594c0 .389.297.663.663.663.343 0 .64-.274.64-.663 0-.32-.297-.594-.64-.594-.366 0-.663.275-.663.594zm13.39-6.466c-.045.503.64.594.777.137 1.166-5.827-2.148-8.432-4.57-8.432-.8 0-.846 1.051-.366 1.12 4.114 1.759 4.205 6.695 4.159 7.175zm.366 3.45c.343 0 .64-.297.64-.663 0-.32-.297-.594-.64-.594-.366 0-.64.274-.64.594 0 .366.274.663.64.663zm-22.943 4.844c0-.434-.32-.754-.754-.754-.411 0-.754.32-.754.754 0 .412.343.8.754.8.434 0 .754-.388.754-.8zm.869-5.963c2.125 1.577 4.776 2.079 8.204.982.274-.046.548-.137.823-.251 2.948-1.074 5.941-3.016 5.278-5.873-.434-1.851-1.851-4.25-5.484-2.971-.091.023-.183.045-.274.091-.069.023-.16.068-.229.091 3.336-11.197 14.762-7.129 14.762-7.129s2.948-7.884 5.553-7.884c2.651 0 5.553 7.884 5.553 7.884s11.425-4.068 14.762 7.129c-.183-.091-.366-.16-.548-.206-3.588-1.234-5.004 1.143-5.416 2.994-.686 2.856 2.788 4.799 5.735 5.873.183.069.389.137.571.183 3.474 1.188 5.827.708 7.975-.914 2.285-1.737 2.696-4.434-2.376-6.261 2.148-1.897 5.256-4.273 7.884-1.668 4.501-4.25 7.381-3.999 10.946-1.394-8.089 4.525-10.946 15.928-11.426 19.287-.183 1.188-2.811 2.262-6.764 3.131.571-.16 1.12-.32 1.646-.503 1.737-.571 3.016-1.166 3.702-1.76-.502-1.805-6.604-3.291-14.213-4.25-5.873-.731-12.637-1.143-18.418-1.143-.914 0-1.828 0-2.788.023-11.974.251-26.553 2.102-29.135 4.776-.297.274-.434.548-.434.845-.548-.366-.846-.731-.914-1.12-.457-3.359-3.336-14.762-11.426-19.287 3.565-2.605 6.421-2.856 10.969 1.394 2.605-2.605 5.69-.251 7.838 1.668l-.023.022c-5.03 1.83-4.618 4.504-2.333 6.241zm3.747 5.644c.366 0 .686-.343.686-.708 0-.411-.32-.708-.686-.708-.389 0-.731.297-.731.708 0 .365.343.708.731.708zm-7.152-11.289c.297-.663-.137-2.057-1.44-.457-1.348 1.531-.845 4.593.343 6.65.686 1.166 1.188.617.983-.503-1.577-3.679-.457-4.524.114-5.69z" fill="#d4af37"/><path d="m206.172 196.492c0-.365.343-.708.731-.708.457 0 .777.343.777.708 0 .457-.32.8-.777.8-.388 0-.731-.343-.731-.8z"/><path d="m200.87 195.464c0-.365.343-.686.708-.686.388 0 .686.32.686.686 0 .435-.297.708-.686.708-.365 0-.708-.274-.708-.708z"/><path d="m196.323 194.116c.366 0 .663.274.663.617 0 .366-.297.594-.663.594-.32 0-.617-.229-.617-.594 0-.343.297-.617.617-.617z"/><path d="m190.427 194.024c0-.32.274-.571.571-.571.32 0 .571.251.571.571s-.251.548-.571.548c-.297.001-.571-.228-.571-.548z"/><path d="m187 193.521c0 .274-.229.549-.526.549s-.548-.274-.548-.549c0-.297.251-.525.548-.525s.526.229.526.525z"/><path d="m182.84 188.334c-1.165-5.827 2.148-8.432 4.547-8.432.8 0 .846 1.074.389 1.166-4.136 1.759-4.25 6.649-4.182 7.175.046.457-.639.549-.754.091z"/><path d="m183.229 190.391c.366 0 .663.32.663.64 0 .389-.297.663-.663.663-.343 0-.617-.274-.617-.663 0-.32.274-.64.617-.64z"/><path d="m203.315 203.782c-5.119 1.074-12.249 1.851-18.99 2.194-2.559.137-5.05.206-7.358.206-1.051 0-2.125-.023-3.245-.045l.023-.823v-8.592l-.023-.708c.96-.023 1.897-.023 2.811-.023 13.253 0 31.74 2.171 32.631 5.416-.913.798-3.038 1.621-5.849 2.375z" fill="#d4af37"/><path d="m178.087 177c-.183 1.6-.708 9.94-1.005 13.002-.023.48-.389.434-.434.046-.389-3.062-.777-11.54-.983-13.094-.251-2.056 2.651-2.147 2.422.046z"/><path d="m170.021 188.243c.023-.526-.023-5.416-4.159-7.175-.502-.091-.457-1.166.343-1.166 2.422 0 5.736 2.605 4.57 8.432-.137.458-.777.366-.754-.091z"/><path d="m170.364 190.391c.343 0 .64.32.64.64 0 .389-.297.663-.64.663s-.617-.274-.617-.663c0-.32.274-.64.617-.64z"/><path d="m167.119 192.996c.32 0 .549.229.549.525 0 .274-.229.549-.549.549-.297 0-.502-.274-.502-.549-.001-.296.205-.525.502-.525z"/><path d="m163.166 194.024c0 .32-.251.548-.571.548s-.571-.229-.571-.548.251-.571.571-.571.571.252.571.571z"/><path d="m156.63 194.733c0-.343.297-.617.64-.617s.617.274.617.617c0 .366-.274.594-.617.594s-.64-.228-.64-.594z"/><path d="m152.014 194.778c.411 0 .708.32.708.686 0 .435-.297.708-.708.708-.366 0-.663-.274-.663-.708.001-.365.297-.686.663-.686z"/><path d="m147.444 196.492c0 .457-.343.8-.754.8-.412 0-.777-.343-.777-.8 0-.365.366-.708.777-.708s.754.343.754.708z"/><path d="m153.225 204.285c-2.354-.548-4.387-1.188-5.918-1.828-1.28-.548-2.216-1.097-2.696-1.668 2.651-2.651 17.138-4.502 29.112-4.776l.023.708v8.592l-.023.823c-6.787-.16-14.487-.823-20.452-1.828-.023 0-.023 0-.046-.023z" fill="#d4af37"/><path d="m143.788 191.122c-1.188-2.034-1.668-5.164-.366-6.649 1.303-1.6 1.783-.183 1.462.411-.548 1.166-1.668 2.057-.137 5.736.252 1.073-.274 1.622-.959.502z"/><path d="m143.308 143.683c.389-1.257.914-2.582 2.742-3.131.914-.274 1.143.32.457.549-.686.251-1.6.617-2.422 2.102-.846 1.463-.937.983-.777.48z"/><path d="m141.525 142.289c1.303 1.531.846 4.593-.366 6.65-.686 1.166-1.188.617-.959-.503 1.554-3.679.411-4.524-.137-5.69-.32-.663.183-2.057 1.462-.457z"/><path d="m140.886 185.341c-.846-1.485-1.76-1.851-2.422-2.08-.686-.251-.48-.8.434-.525 1.874.571 2.376 1.828 2.742 3.131.182.502.091.982-.754-.526z"/><path d="m137.526 154.354c0-.434.32-.754.754-.754.412 0 .777.32.777.754 0 .412-.366.8-.777.8-.434 0-.754-.388-.754-.8z"/><path d="m208.708 184.884c.571 1.166 1.691 2.057.137 5.736-.251 1.074.274 1.623.982.502 1.166-2.034 1.646-5.164.343-6.649-1.302-1.6-1.759-.183-1.462.411zm-1.805 12.408c.457 0 .777-.343.777-.8 0-.365-.32-.708-.777-.708-.388 0-.731.343-.731.708 0 .457.343.8.731.8zm-37.156-6.261c0 .389.274.663.617.663s.64-.274.64-.663c0-.32-.297-.64-.64-.64s-.617.32-.617.64zm-2.628 1.965c-.297 0-.502.229-.502.525 0 .274.206.549.502.549.32 0 .549-.274.549-.549-.001-.296-.229-.525-.549-.525zm15.493-1.965c0 .389.274.663.617.663.366 0 .663-.274.663-.663 0-.32-.297-.64-.663-.64-.343 0-.617.32-.617.64zm-11.837-2.697c1.166-5.827-2.148-8.432-4.57-8.432-.8 0-.845 1.074-.343 1.166 4.136 1.759 4.182 6.649 4.159 7.175-.023.457.617.549.754.091zm30.804 6.444c-.366 0-.708.32-.708.686 0 .435.343.708.708.708.388 0 .686-.274.686-.708-.001-.365-.298-.686-.686-.686zm-4.594-.045c0-.343-.297-.617-.663-.617-.32 0-.617.274-.617.617 0 .366.297.594.617.594.366 0 .663-.228.663-.594zm-34.391-.16c.32 0 .571-.229.571-.548s-.251-.571-.571-.571-.571.251-.571.571.251.548.571.548zm14.488-4.571c.297-3.062.823-11.403 1.005-13.002.229-2.193-2.673-2.102-2.422-.045.206 1.554.594 10.032.983 13.094.045.388.411.433.434-.047zm-38.185-7.266c-.914-.274-1.12.274-.434.525.663.229 1.577.594 2.422 2.08.845 1.508.937 1.028.754.526-.365-1.303-.868-2.56-2.742-3.131zm76.255.525c.686-.251.457-.8-.457-.525-1.828.571-2.354 1.828-2.765 3.131-.114.502-.068.982.777-.526.846-1.486 1.737-1.851 2.445-2.08zm-28.152 10.26c0-.297-.229-.525-.526-.525s-.548.229-.548.525c0 .274.251.549.548.549s.526-.274.526-.549zm-39.556 2.971c0-.365-.343-.708-.754-.708-.412 0-.777.343-.777.708 0 .457.366.8.777.8s.754-.343.754-.8zm9.826-2.376c-.343 0-.64.274-.64.617 0 .366.297.594.64.594s.617-.229.617-.594c0-.343-.274-.617-.617-.617zm33.729-.663c-.297 0-.571.251-.571.571s.274.548.571.548c.32 0 .571-.229.571-.548s-.252-.571-.571-.571zm-38.276 2.011c0-.365-.297-.686-.708-.686-.366 0-.663.32-.663.686 0 .435.297.708.663.708.41 0 .708-.274.708-.708zm30.872-7.221c-.069-.526.045-5.416 4.182-7.175.457-.091.411-1.166-.389-1.166-2.399 0-5.712 2.605-4.547 8.432.114.458.799.366.754-.091zm-40.173-3.77c-1.302 1.485-.822 4.616.366 6.649.686 1.12 1.211.571.96-.502-1.531-3.679-.412-4.57.137-5.736.32-.594-.16-2.011-1.463-.411zm65.743 16.932c-.891-3.245-19.378-5.416-32.631-5.416-.914 0-1.851 0-2.811.023-11.974.274-26.461 2.125-29.112 4.776-.274.274-.411.548-.434.822-.526-.365-.846-.731-.891-1.12-.503-3.291-3.359-14.762-11.449-19.286 3.588-2.605 6.444-2.856 10.946 1.439 2.628-2.605 5.736-.229 7.861 1.645-5.027 1.851-4.616 4.502-2.354 6.239 2.262 1.714 5.233 2.193 9.049.8 2.925-1.074 5.941-3.04 5.233-5.941-.388-1.828-1.782-4.136-5.301-2.994h-.023c-.206.091-.411.16-.64.251 3.336-11.243 14.785-7.13 14.785-7.13s2.902-7.883 5.553-7.883c2.582 0 5.53 7.883 5.53 7.883s11.448-4.113 14.785 7.13c-.183-.069-.343-.137-.526-.183-3.633-1.256-5.05 1.074-5.484 2.925-.663 2.902 2.811 4.867 5.758 5.941.183.068.366.137.548.183 3.496 1.166 5.85.64 8.021-.982 2.262-1.737 2.673-4.388-2.376-6.239 2.148-1.874 5.255-4.25 7.861-1.645 4.524-4.296 7.381-4.045 10.968-1.439-8.089 4.524-10.968 15.996-11.425 19.286-.183 1.257-3.063 2.376-7.29 3.291 2.81-.753 4.935-1.576 5.849-2.376z" fill="#d4af37"/><path d="m132.933 152.618c.366 0 .708.297.708.708 0 .366-.343.708-.708.708-.388 0-.708-.343-.708-.708 0-.411.32-.708.708-.708z"/><path d="m126.307 154.972c7.586.937 13.688 2.422 14.236 4.228-.686.617-1.988 1.211-3.725 1.782-.502.183-1.028.343-1.577.503-.023 0-.045 0-.045 0-2.514.548-5.599 1.051-8.889 1.417l-.046-.388v-7.084z" fill="#d4af37"/><path d="m128.317 152.526c0 .389-.274.663-.617.663s-.64-.274-.64-.663c0-.32.297-.594.64-.594s.617.275.617.594z"/><path d="m122.376 152.435c-.32 0-.571-.274-.571-.548 0-.32.251-.617.571-.617.297 0 .548.297.548.617 0 .274-.251.548-.548.548z"/><path d="m117.829 151.932c-.32 0-.525-.274-.525-.571 0-.32.206-.502.525-.502.297 0 .525.183.525.502 0 .297-.229.571-.525.571z"/><path d="m114.195 146.197c-1.188-5.827 2.125-8.432 4.57-8.432.777 0 .823 1.051.343 1.12-4.136 1.76-4.228 6.695-4.159 7.175.023.503-.616.594-.754.137z"/><path d="m114.583 148.253c.366 0 .64.274.64.594 0 .365-.274.663-.64.663-.32 0-.617-.297-.617-.663.001-.32.298-.594.617-.594z"/><path d="m126.307 162.901c-3.405.412-7.084.708-10.626.891-2.56.137-5.05.206-7.358.206-1.051 0-2.125-.023-3.222-.046l.023-.846v-8.523l-.023-.731c.959-.023 1.874-.023 2.788-.023 5.781 0 12.545.411 18.418 1.143l-.046.457v7.084z" fill="#d4af37"/><path d="m109.419 134.817c-.16 1.645-.663 9.94-.96 13.048-.045.434-.411.389-.457.046-.388-3.062-.8-11.608-.959-13.094-.251-2.103 2.605-2.148 2.376 0z"/><path d="m101.353 146.06c.068-.48-.023-5.416-4.159-7.175-.48-.068-.434-1.12.389-1.12 2.399 0 5.69 2.605 4.547 8.432-.137.457-.8.366-.777-.137z"/><path d="m101.718 148.253c.366 0 .663.274.663.594 0 .365-.297.663-.663.663-.343 0-.617-.297-.617-.663.001-.32.274-.594.617-.594z"/><path d="m99.022 151.361c0 .297-.229.571-.548.571-.274 0-.526-.274-.526-.571 0-.32.251-.502.526-.502.319-.001.548.182.548.502z"/><path d="m93.4 151.887c0-.32.251-.617.571-.617.297 0 .549.297.549.617 0 .274-.251.548-.549.548-.319 0-.571-.274-.571-.548z"/><path d="m87.962 152.526c0-.32.297-.594.663-.594.343 0 .617.274.617.594 0 .389-.274.663-.617.663-.366 0-.663-.274-.663-.663z"/><path d="m83.392 152.618c.389 0 .686.297.686.708 0 .366-.297.708-.686.708-.388 0-.708-.343-.708-.708-.001-.411.319-.708.708-.708z"/><path d="m75.965 158.628c2.583-2.674 17.162-4.525 29.136-4.776l.023.731v8.523l-.023.846c-7.084-.16-15.196-.891-21.252-1.988-.023 0-.023 0-.045 0-2.011-.525-3.771-1.074-5.142-1.668-1.28-.548-2.194-1.097-2.697-1.668z" fill="#d4af37"/><path d="m78.044 153.601c.412 0 .754.32.754.754 0 .412-.343.8-.754.8-.434 0-.754-.388-.754-.8.001-.435.32-.754.754-.754z"/><path d="m75.143 148.939c-1.188-2.057-1.668-5.119-.366-6.65 1.302-1.6 1.782-.206 1.462.457-.548 1.166-1.691 2.011-.137 5.69.252 1.12-.274 1.668-.959.503z"/><path d="m72.24 143.203c-.845-1.485-1.737-1.851-2.422-2.102-.686-.229-.479-.823.435-.549 1.851.549 2.354 1.874 2.765 3.131.159.503.091.983-.778-.48z"/><path d="m93.972 151.27c-.32 0-.571.297-.571.617 0 .274.251.548.571.548.297 0 .549-.274.549-.548 0-.32-.252-.617-.549-.617zm3.976.091c0 .297.251.571.526.571.32 0 .548-.274.548-.571 0-.32-.229-.502-.548-.502-.275-.001-.526.182-.526.502zm-13.871 1.965c0-.411-.297-.708-.686-.708-.388 0-.708.297-.708.708 0 .366.32.708.708.708.389.001.686-.342.686-.708zm17.641-5.073c-.343 0-.617.274-.617.594 0 .365.274.663.617.663.366 0 .663-.297.663-.663 0-.32-.297-.594-.663-.594zm-13.093 3.679c-.365 0-.663.274-.663.594 0 .389.297.663.663.663.343 0 .617-.274.617-.663 0-.319-.275-.594-.617-.594zm13.505-5.735c1.143-5.827-2.148-8.432-4.547-8.432-.823 0-.869 1.051-.389 1.12 4.136 1.76 4.228 6.695 4.159 7.175-.023.503.64.594.777.137zm-24.086 8.957c.412 0 .754-.388.754-.8 0-.434-.343-.754-.754-.754-.434 0-.754.32-.754.754.001.412.32.8.754.8zm-3.267-12.865c-1.303 1.531-.823 4.593.366 6.65.686 1.166 1.211.617.959-.503-1.554-3.679-.411-4.524.137-5.69.32-.663-.16-2.057-1.462-.457zm52.923 10.9c.343 0 .617-.274.617-.663 0-.32-.274-.594-.617-.594s-.64.274-.64.594c.001.389.297.663.64.663zm-54.683-9.506c-.411-1.257-.914-2.582-2.765-3.131-.914-.274-1.12.32-.435.549.686.251 1.577.617 2.422 2.102.87 1.463.938.983.778.48zm35.442 4.182c.297-3.108.8-11.403.96-13.048.229-2.148-2.628-2.103-2.376 0 .16 1.485.571 10.032.959 13.094.046.342.412.388.457-.046zm13.346 4.022c0 .274.251.548.571.548.297 0 .548-.274.548-.548 0-.32-.251-.617-.548-.617-.32 0-.571.297-.571.617zm-7.222-3.634c-.32 0-.617.274-.617.594 0 .365.297.663.617.663.366 0 .64-.297.64-.663.001-.32-.274-.594-.64-.594zm3.246 2.605c-.32 0-.525.183-.525.502 0 .297.206.571.525.571.297 0 .525-.274.525-.571 0-.319-.229-.502-.525-.502zm-2.88-4.798c-.068-.48.023-5.416 4.159-7.175.48-.068.434-1.12-.343-1.12-2.445 0-5.759 2.605-4.57 8.432.138.457.777.366.754-.137zm22.577 8.294c0 .412.32.8.754.8.412 0 .777-.388.777-.8 0-.434-.366-.754-.777-.754-.434.001-.754.32-.754.754zm8.524-13.802c-1.828.549-2.354 1.874-2.742 3.131-.16.502-.068.982.777-.48.822-1.485 1.736-1.851 2.422-2.102.685-.228.457-.823-.457-.549zm-3.633-.091c4.547-4.25 7.381-3.999 10.969-1.394-8.089 4.525-10.969 15.928-11.449 19.287-.183 1.188-2.788 2.239-6.695 3.131.548-.16 1.074-.32 1.577-.503 1.737-.571 3.04-1.166 3.725-1.782-.549-1.805-6.65-3.291-14.236-4.228-5.873-.731-12.637-1.143-18.418-1.143-.914 0-1.828 0-2.788.023-11.974.251-26.553 2.102-29.136 4.776-.297.274-.434.548-.434.845-.548-.366-.845-.731-.914-1.12-.457-3.359-3.336-14.762-11.448-19.287 3.587-2.605 6.467-2.856 10.991 1.394 2.605-2.605 5.667-.251 7.838 1.668l-.022.022c-5.004 1.828-4.616 4.502-2.331 6.239 2.125 1.577 4.776 2.079 8.204 1.005.274-.069.548-.16.846-.274 2.925-1.074 5.918-3.016 5.278-5.873-.479-1.897-1.919-4.365-5.758-2.879-.068.023-.16.046-.251.091 3.336-11.197 14.785-7.129 14.785-7.129s2.925-7.884 5.53-7.884c2.651 0 5.553 7.884 5.553 7.884s11.426-4.068 14.762 7.129c-.183-.068-.366-.137-.526-.206-3.587-1.257-5.027 1.143-5.438 2.994-.686 2.856 2.811 4.799 5.736 5.873.206.069.388.137.594.183 3.474 1.188 5.804.708 7.952-.914 2.263-1.737 2.72-4.434-2.354-6.261 2.145-1.896 5.23-4.272 7.858-1.667zm-1.257 8.478c1.211-2.057 1.668-5.119.366-6.65-1.28-1.6-1.782-.206-1.462.457.548 1.166 1.691 2.011.137 5.69-.229 1.12.273 1.668.959.503zm-8.227 5.096c.366 0 .708-.343.708-.708 0-.411-.343-.708-.708-.708-.388 0-.708.297-.708.708 0 .365.32.708.708.708z" fill="#d4af37"/><g stroke="#000"><path d="m223.104 161.964c6.056 1.097 14.168 1.828 21.251 1.988 1.097.023 2.171.046 3.199.046 2.331 0 4.822-.069 7.381-.206 3.565-.183 7.221-.479 10.626-.891 3.268-.366 6.307-.845 8.821-1.394" fill="none" stroke-linejoin="round"/><path d="m221.253 142.129c-2.148-1.92-5.233-4.273-7.838-1.668-4.547-4.25-7.404-3.999-10.969-1.394 8.089 4.525 10.969 15.928 11.426 19.287.068.389.366.754.914 1.12.708.457 1.782.914 3.153 1.326 1.417.411 3.154.8 5.119 1.165" fill="none" stroke-linejoin="round"/><path d="m227.72 140.278c3.633-1.28 5.05 1.12 5.484 2.971.663 2.856-2.331 4.799-5.278 5.873-.274.114-.549.206-.823.251-3.428 1.097-6.079.594-8.204-.982-2.285-1.737-2.697-4.411 2.331-6.239" fill="none" stroke-linejoin="round"/><path d="m274.428 161.484c3.954-.869 6.582-1.942 6.764-3.131.48-3.359 3.336-14.762 11.426-19.287-3.565-2.605-6.444-2.856-10.946 1.394-2.628-2.605-5.736-.229-7.884 1.668 5.073 1.828 4.662 4.524 2.376 6.261-2.148 1.622-4.501 2.102-7.975.914-.183-.046-.388-.114-.571-.183-2.948-1.074-6.421-3.016-5.735-5.873.411-1.851 1.828-4.228 5.416-2.994.183.046.366.114.548.206-3.336-11.197-14.762-7.129-14.762-7.129s-2.902-7.884-5.553-7.884c-2.605 0-5.553 7.884-5.553 7.884s-11.425-4.068-14.762 7.129c.068-.023.16-.068.229-.091" fill="none" stroke-linejoin="round"/><path d="m214.787 159.473c0-.297.137-.571.434-.845 2.582-2.674 17.161-4.525 29.135-4.776.96-.023 1.874-.023 2.788-.023 5.781 0 12.545.411 18.418 1.143 7.609.959 13.711 2.445 14.213 4.25.023.092.046.16.046.251" fill="none"/><path d="m244.379 154.583v8.523" fill="none" stroke-linejoin="round"/><path d="m239.078 155.154v7.541" fill="none" stroke-linejoin="round"/><path d="m233.799 155.337v6.947" fill="none" stroke-linejoin="round"/><path d="m228.52 155.931v5.873" fill="none" stroke-linejoin="round"/><path d="m223.219 156.457v4.936" fill="none" stroke-linejoin="round"/><path d="m217.94 157.371v2.925.503.182" fill="none" stroke-linejoin="round"/><path d="m249.658 154.583v8.523" fill="none" stroke-linejoin="round"/><path d="m254.936 155.154v8.638.114" fill="none" stroke-linejoin="round"/><path d="m260.215 154.926v7.587" fill="none" stroke-linejoin="round"/><path d="m265.517 155.406v7.061" fill="none" stroke-linejoin="round"/><path d="m270.795 156.229v5.164" fill="none" stroke-linejoin="round"/><path d="m276.074 157.371v3.61" fill="none" stroke-linejoin="round"/><path d="m267.527 140.416c-.068-.046-.16-.069-.251-.092-2.285-.434-7.313 4.822.914 8.958" fill="none" stroke-linejoin="round"/><path d="m227.446 140.37c.091-.046.183-.068.274-.091 2.331-.457 7.587 4.867-.64 9.003" fill="none" stroke-linejoin="round"/><path d="m221.642 141.855s-.16.091-.389.274l-.023.022c-1.188.846-4.41 3.474-2.605 5.804" fill="none" stroke-linejoin="round"/><path d="m272.852 141.992s5.827 3.13 3.611 5.964" fill="none" stroke-linejoin="round"/><path d="m214.833 157.896c.022.251.16.503.388.731.503.571 1.439 1.143 2.719 1.668 1.348.594 3.108 1.143 5.119 1.668h.046c6.718 1.737 16.338 3.017 24.268 3.017 8.912 0 20.223-1.554 27.01-3.474 0 0 .023-.022.045-.022.571-.16 1.12-.32 1.646-.503 1.737-.571 3.016-1.166 3.702-1.76.343-.297.526-.594.549-.868" fill="none" stroke-linejoin="round"/><path d="m83.849 161.964c6.056 1.097 14.168 1.828 21.252 1.988 1.097.023 2.171.046 3.222.046 2.308 0 4.799-.069 7.358-.206 3.542-.183 7.221-.479 10.626-.891 3.291-.366 6.375-.868 8.889-1.417" fill="none" stroke-linejoin="round"/><path d="m81.998 142.129c-2.17-1.92-5.233-4.273-7.838-1.668-4.524-4.25-7.404-3.999-10.991-1.394 8.112 4.525 10.991 15.928 11.448 19.287.069.389.366.754.914 1.12.708.457 1.783.914 3.131 1.303 1.417.434 3.176.823 5.142 1.188" fill="none" stroke-linejoin="round"/><path d="m135.241 161.484c3.908-.892 6.513-1.942 6.695-3.131.48-3.359 3.359-14.762 11.449-19.287-3.588-2.605-6.421-2.856-10.969 1.394-2.628-2.605-5.713-.229-7.861 1.668 5.073 1.828 4.616 4.524 2.354 6.261-2.148 1.622-4.479 2.102-7.952.914-.206-.046-.388-.114-.594-.183-2.925-1.074-6.421-3.016-5.736-5.873.411-1.851 1.851-4.25 5.438-2.994.16.068.343.137.526.206-3.336-11.197-14.762-7.129-14.762-7.129s-2.902-7.884-5.553-7.884c-2.605 0-5.53 7.884-5.53 7.884s-11.448-4.068-14.785 7.129c.091-.045.183-.068.251-.091 3.839-1.485 5.279.982 5.758 2.879.64 2.856-2.354 4.799-5.278 5.873-.297.114-.571.206-.846.274-3.428 1.074-6.079.571-8.204-1.005-2.285-1.737-2.673-4.411 2.331-6.239" fill="none" stroke-linejoin="round"/><path d="m75.531 159.473c0-.297.137-.571.434-.845 2.583-2.674 17.162-4.525 29.136-4.776.959-.023 1.874-.023 2.788-.023 5.781 0 12.545.411 18.418 1.143 7.586.937 13.688 2.422 14.236 4.228.022.091.045.183.045.274" fill="none"/><path d="m105.124 154.583v8.523" fill="none" stroke-linejoin="round"/><path d="m99.822 155.154v7.541" fill="none" stroke-linejoin="round"/><path d="m94.543 155.337v6.947" fill="none" stroke-linejoin="round"/><path d="m89.242 155.931v5.873" fill="none" stroke-linejoin="round"/><path d="m83.963 156.457v4.936" fill="none" stroke-linejoin="round"/><path d="m78.662 157.371v2.925.48.205" fill="none" stroke-linejoin="round"/><path d="m110.402 154.583v8.523" fill="none" stroke-linejoin="round"/><path d="m115.681 155.154v8.638.114" fill="none" stroke-linejoin="round"/><path d="m120.982 154.972v7.541" fill="none" stroke-linejoin="round"/><path d="m126.261 155.429v7.084" fill="none" stroke-linejoin="round"/><path d="m131.54 155.909v5.484" fill="none" stroke-linejoin="round"/><path d="m136.818 157.371v3.61" fill="none" stroke-linejoin="round"/><path d="m128.294 140.416c-.091-.046-.16-.069-.251-.092-2.308-.434-7.335 4.822.914 8.958" fill="none" stroke-linejoin="round"/><path d="m88.213 140.37c2.125-.982 8.204 4.616-.389 8.912" fill="none" stroke-linejoin="round"/><path d="m82.386 141.855s-.16.091-.389.274l-.022.022c-1.188.846-4.411 3.474-2.605 5.804" fill="none" stroke-linejoin="round"/><path d="m133.619 141.992s5.804 3.13 3.611 5.964" fill="none" stroke-linejoin="round"/><path d="m75.577 157.896c.023.251.16.503.388.731.503.571 1.417 1.12 2.697 1.668 1.371.594 3.13 1.143 5.142 1.668h.045c6.718 1.737 16.362 3.017 24.291 3.017 8.912 0 20.269-1.554 27.056-3.496h.045c.548-.16 1.074-.32 1.577-.503 1.737-.571 3.04-1.166 3.725-1.782.343-.274.525-.571.525-.846" fill="none" stroke-linejoin="round"/><path d="m153.271 204.308c5.964 1.005 13.665 1.668 20.452 1.828 1.12.022 2.194.045 3.245.045 2.308 0 4.799-.068 7.358-.206 6.741-.343 13.871-1.12 18.99-2.194 4.227-.914 7.106-2.034 7.29-3.291.457-3.291 3.336-14.762 11.425-19.286-3.587-2.605-6.444-2.856-10.968 1.439-2.605-2.605-5.713-.229-7.861 1.645 5.05 1.851 4.639 4.502 2.376 6.239-2.171 1.622-4.525 2.148-8.021.982-.183-.046-.366-.114-.548-.183-2.948-1.074-6.421-3.04-5.758-5.941.434-1.851 1.851-4.182 5.484-2.925.183.046.343.114.526.183-3.336-11.243-14.785-7.13-14.785-7.13s-2.948-7.883-5.53-7.883c-2.651 0-5.553 7.883-5.553 7.883s-11.449-4.113-14.785 7.13c.229-.091.434-.16.64-.251" fill="none" stroke-linejoin="round"/><path d="m157.27 182.393c3.519-1.143 4.913 1.166 5.301 2.994.708 2.902-2.308 4.867-5.233 5.941-3.816 1.394-6.787.914-9.049-.8-2.263-1.737-2.674-4.388 2.354-6.239-2.125-1.874-5.233-4.25-7.861-1.645-4.502-4.296-7.358-4.045-10.946-1.439 8.089 4.524 10.946 15.996 11.449 19.286.045.389.365.754.891 1.12.686.48 1.759.914 3.13 1.326 1.623.502 3.633.959 5.918 1.348" fill="none" stroke-linejoin="round"/><path d="m144.176 201.657c0-.023 0-.023 0-.046.023-.274.16-.548.434-.822 2.651-2.651 17.138-4.502 29.112-4.776.96-.023 1.897-.023 2.811-.023 13.253 0 31.74 2.171 32.631 5.416.023.091.046.16.046.251" fill="none"/><path d="m173.746 196.721v8.592" fill="none" stroke-linejoin="round"/><path d="m168.444 197.292v7.541" fill="none" stroke-linejoin="round"/><path d="m163.166 197.521v6.946" fill="none" stroke-linejoin="round"/><path d="m157.887 198.069v5.919" fill="none" stroke-linejoin="round"/><path d="m152.608 198.64v4.936" fill="none" stroke-linejoin="round"/><path d="m147.307 199.577v2.88.48.182" fill="none" stroke-linejoin="round"/><path d="m179.024 196.721v8.592" fill="none" stroke-linejoin="round"/><path d="m184.326 197.292v8.684.068" fill="none" stroke-linejoin="round"/><path d="m189.604 196.881v7.815" fill="none" stroke-linejoin="round"/><path d="m194.906 198.023v6.262" fill="none" stroke-linejoin="round"/><path d="m200.185 198.32v5.256" fill="none" stroke-linejoin="round"/><path d="m205.463 199.577v3.542" fill="none" stroke-linejoin="round"/><path d="m196.962 182.599c-.068-.045-.16-.068-.251-.091-2.308-.434-7.381 4.822.868 8.958" fill="none" stroke-linejoin="round"/><path d="m156.836 182.507c.114-.046.251-.091.411-.114h.023c2.399-.16 7.267 5.027-.823 9.072" fill="none" stroke-linejoin="round"/><path d="m151.032 184.039s-5.21 3.222-2.994 6.078" fill="none" stroke-linejoin="round"/><path d="m202.241 184.175s5.804 3.085 3.633 5.941" fill="none" stroke-linejoin="round"/><path d="m144.222 200.08c.046.229.16.48.389.708.48.571 1.417 1.12 2.696 1.668 1.531.64 3.565 1.28 5.918 1.828.023.023.023.023.046.023 6.65 1.622 15.859 2.811 23.514 2.811 8.684 0 19.698-1.485 26.531-3.336 2.811-.754 4.936-1.577 5.85-2.376.343-.297.526-.594.548-.868" fill="none" stroke-linejoin="round"/><path d="m252.791 369.344s-1.658.021-4.227.021c-7.071 0-6.58 10.841.623 10.841h3.532" fill="#d4af37"/></g><path d="m283.269 421.715v156.522h37.711v-156.181" fill="none" stroke="#020202"/><path d="m290.098 423.087v155.15" fill="none" stroke="#020202"/><path d="m314.228 423.436v154.801" fill="none" stroke="#020202"/><path d="m313.217 445.371h-9.074" fill="none" stroke="#020202"/><path d="m313.217 427.35h-6.043" fill="none" stroke="#020202"/><path d="m313.217 433.497h-6.043" fill="none" stroke="#020202"/><path d="m313.217 439.605h-6.043" fill="none" stroke="#020202"/><path d="m313.217 450.745h-6.043" fill="none" stroke="#020202"/><path d="m301.733 438.788c.14 0 .194.132.194.175-.132.556-.408 1.247-.817 1.758l-4.367.563c-.613.13-.657.13-.773.603l-.206.729c-.053.257.009.344.409.431l1.495.257c1.677.261 4.732 1.165 4.732 4.475 0 3.784-4.517 6.152-7.927 6.284-.246-.132-.342-.518-.149-.736 2.977-.342 6.01-1.846 6.01-4.773 0-2.969-3.074-3.611-5.429-3.698-.431 0-.483-.087-.356-.646l1.163-4.129c.063-.342.193-.56.537-.56z"/><path d="m320.98 328.113v-63.487h-37.711v64.177" fill="none" stroke="#020202"/><path d="m290.098 265.746v60.691" fill="none" stroke="#020202"/><path d="m314.228 265.746v59.703" fill="none" stroke="#020202"/><path d="m313.217 306.822h-6.043" fill="none" stroke="#020202"/><path d="m313.217 314.521h-6.043" fill="none" stroke="#020202"/><path d="m302.237 309.877c.118.043.194.129.194.215-.127.559-.408 1.246-.816 1.719l-4.376.603c-.605.043-.624.087-.754.559l-.215.774c-.064.215.022.302.409.387l1.474.259c1.689.301 4.753 1.162 4.753 4.516 0 3.785-4.538 6.109-7.925 6.237-.259-.128-.344-.518-.15-.731 2.989-.344 6.008-1.849 6.008-4.773 0-2.969-3.063-3.572-5.429-3.655-.429 0-.504-.131-.354-.69l1.15-4.086c.087-.387.195-.559.549-.603z"/><path d="m352.973 375.173c0-27.744-22.475-50.198-50.186-50.198-27.733 0-50.187 22.454-50.187 50.198 0 27.698 22.453 50.195 50.187 50.195 27.711 0 50.186-22.497 50.186-50.195" fill="#d4af37" stroke="#000"/><path d="m313.217 320.933h-9.074" fill="none" stroke="#020202"/><path d="m313.217 286.736h-9.074" fill="none" stroke="#020202"/><path d="m313.217 294.694h-6.043" fill="none" stroke="#020202"/><path d="m313.217 300.886h-6.043" fill="none" stroke="#020202"/><path d="m313.217 273.616h-6.043" fill="none" stroke="#020202"/><path d="m313.217 267.552h-6.043" fill="none" stroke="#020202"/><path d="m313.217 279.767h-6.043" fill="none" stroke="#020202"/><path d="m313.217 474.359h-9.074" fill="none" stroke="#020202"/><path d="m313.217 456.293h-6.043" fill="none" stroke="#020202"/><path d="m313.217 462.402h-6.043" fill="none" stroke="#020202"/><path d="m313.217 468.556h-6.043" fill="none" stroke="#020202"/><path d="m313.217 504.169h-9.074" fill="none" stroke="#020202"/><path d="m313.217 480.597h-6.043" fill="none" stroke="#020202"/><path d="m313.217 486.146h-6.043" fill="none" stroke="#020202"/><path d="m313.217 492.299h-6.043" fill="none" stroke="#020202"/><path d="m313.217 498.407h-6.043" fill="none" stroke="#020202"/><path d="m313.217 534.969h-9.074" fill="none" stroke="#020202"/><path d="m313.217 511.354h-6.043" fill="none" stroke="#020202"/><path d="m313.217 516.902h-6.043" fill="none" stroke="#020202"/><path d="m313.217 523.05h-6.043" fill="none" stroke="#020202"/><path d="m313.217 529.203h-6.043" fill="none" stroke="#020202"/><path d="m313.217 563.096h-9.074" fill="none" stroke="#020202"/><path d="m313.217 540.385h-6.043" fill="none" stroke="#020202"/><path d="m313.217 545.933h-6.043" fill="none" stroke="#020202"/><path d="m313.217 551.182h-6.043" fill="none" stroke="#020202"/><path d="m313.217 557.334h-6.043" fill="none" stroke="#020202"/><path d="m313.217 567.271h-6.043" fill="none" stroke="#020202"/><path d="m313.217 573.419h-6.043" fill="none" stroke="#020202"/><path d="m298.636 295.08c-3.118 0-4.785-2.365-4.785-5.418 0-1.721.57-4.345 2.805-6.54 2.15-2.107 5.001-2.838 6.516-3.011.13.086.152.43.067.603-1.343.431-3.249 1.162-4.583 2.624-1.611 1.764-2.193 4.173-2.257 6.021-.043 2.625.795 4.86 2.494 4.86 1.418 0 1.98-1.29 1.98-2.667 0-2.064-.884-3.827-2.433-3.827-.301 0-.473 0-.698.086-.14-.043-.206-.259-.14-.431.624-.559 1.484-.774 2.237-.774 1.988 0 3.398 1.677 3.354 4.001-.086 2.666-1.933 4.473-4.557 4.473z"/><path d="m298.292 468.254c1.484 0 2.645.688 3.419 1.634.764.986 1.141 2.32 1.098 4.041-.064 2.193-.881 4.775-3.378 6.8-1.687 1.334-3.762 2.064-5.139 2.318-.182-.125-.278-.473-.128-.643 1.225-.429 2.257-.99 2.989-1.551 1.677-1.29 3.01-3.396 3.097-7.224.063-2.495-.604-4.56-2.15-4.56-.947 0-1.851.904-1.895 2.707-.075 1.683.841 3.486 2.141 3.486.333 0 .526 0 .698-.045.152.045.214.261.152.473-.539.389-1.206.605-2 .605-1.808 0-3.366-1.377-3.335-3.74.13-2.71 2.15-4.301 4.431-4.301z"/><path d="m302.378 500.596c0 1.726-1.399 2.5-2.356 3.056 1.303.691 2.766 1.895 2.766 4.001 0 2.368-2.152 3.57-4.441 3.57-2.077 0-4.301-.901-4.301-3.354 0-1.764 1.29-2.884 2.786-3.483-1.109-.605-2.366-1.721-2.388-3.316.022-2.193 1.731-3.695 4.183-3.695 2.075-.001 3.751 1.157 3.751 3.221zm-1.85 7.704c0-1.639-1.174-2.712-2.947-3.57-1 .771-1.496 1.676-1.505 3.01.01 1.591 1.01 2.624 2.365 2.624 1.141-.001 2.087-.774 2.087-2.064zm-4.012-7.873c0 1.421 1.583 2.195 2.786 2.756.773-.647 1.184-1.464 1.184-2.587 0-1.202-.71-2.362-2.022-2.362-1.269-.001-1.948 1.035-1.948 2.193z"/><path d="m300.549 526.84c1.162 0 2.52 0 2.775-.045.107.045.152.082.152.257-.518.774-1.194 1.895-2.066 3.659l-5.506 10.665c-.355.045-.881-.13-.904-.474l5.42-10.278c.431-.816.689-1.596.689-1.765 0-.088-.132-.217-.476-.217h-4.3c-1.032 0-1.764.129-2.204.991-.141.087-.452.042-.527-.132.321-.986.527-1.933.72-2.707.418.045 1.084.045 2.248.045h3.979z"/><circle cx="302.742" cy="375.235" fill="#fff" r="44.846"/><path d="m298.636 569.51c-3.118 0-4.785-2.368-4.785-5.381 0-1.763.57-4.345 2.805-6.581 2.15-2.064 5.001-2.794 6.516-2.968.13.087.152.386.067.561-1.343.473-3.249 1.202-4.583 2.669-1.611 1.72-2.193 4.17-2.257 6.021-.043 2.582.795 4.858 2.494 4.858 1.418 0 1.98-1.293 1.98-2.707 0-2.026-.884-3.872-2.433-3.872-.301 0-.473.087-.698.17-.14-.045-.206-.257-.14-.431.624-.556 1.484-.772 2.237-.772 1.988 0 3.398 1.634 3.354 4.001-.086 2.624-1.933 4.432-4.557 4.432z"/><path d="m283.516 374.892-25.548-.013c0-11.401 4.321-21.559 11.344-29.517 8.203-9.204 20.119-14.973 33.43-14.973l.002 18.026-17.162 2.064z" fill="#ed1c2e"/><path d="m347.609 374.845c0 12.903-5.474 24.561-14.234 32.732-8.003 7.48-18.826 12.111-30.633 12.111l.035-22.959 13.9-5.402 6.166-16.448z" fill="#ed1c2e"/><path d="m322.262 348.202h-32.164l-6.561 4.99v43.487h31.701l7.164-8.559z" fill="#fff" stroke="#020202"/><path d="m314.734 353.578 6.516-5.033" fill="none" stroke="#020202"/><circle cx="302.55" cy="375.235" fill="none" r="44.846" stroke="#000"/><path d="m284.055 353.578h30.679v41.981" fill="none" stroke="#020202"/><path d="m314.09 374.787h-10.918" fill="none" stroke="#020202"/><path d="m314.09 357.406h-7.916" fill="none" stroke="#020202"/><path d="m314.09 362.913h-7.916" fill="none" stroke="#020202"/><path d="m314.09 369.021h-7.916" fill="none" stroke="#020202"/><path d="m314.09 381.064h-7.916" fill="none" stroke="#020202"/><path d="m314.09 386.612h-7.916" fill="none" stroke="#020202"/><path d="m314.09 392.334h-7.916" fill="none" stroke="#020202"/><path d="m300.593 371.085c0 .903-.344 1.765-2.27 2.667-.128.174-.031.346.259.346 1.603.127 3.064 1.245 3.064 3.31 0 3.44-3.666 6.021-6.817 6.021-1.011 0-2.107-.469-2.107-1.373 0-.56.431-.99.999-.99.582 0 1 .56 1.153.774.386.473.707.647 1.181.647.991 0 3.129-1.465 3.129-4.046 0-1.764-.869-3.185-2.668-3.185-.794 0-1.567.391-2.051.858-.346-.037-.626-.511-.474-.858 1.366-.643 4.183-1.417 4.183-3.568 0-1.203-.742-1.808-1.646-1.808-1.032 0-1.892.645-2.602 1.721-.205.131-.42-.04-.462-.3.699-1.548 2.27-2.581 3.968-2.581 1.958 0 3.161 1.033 3.161 2.365z"/></svg>